<svg xmlns="http://www.w3.org/2000/svg" xmlns:xlink="http://www.w3.org/1999/xlink" width="500" zoomAndPan="magnify" viewBox="0 0 375 374.999991" height="500" preserveAspectRatio="xMidYMid meet" version="1.0"><defs><g/><clipPath id="6f41023a17"><path d="M 13.460938 115.445312 L 59.34375 115.445312 L 59.34375 154.492188 L 13.460938 154.492188 Z M 13.460938 115.445312 " clip-rule="nonzero"/></clipPath><clipPath id="9816e95d03"><path d="M 0.460938 0.445312 L 46.34375 0.445312 L 46.34375 39.492188 L 0.460938 39.492188 Z M 0.460938 0.445312 " clip-rule="nonzero"/></clipPath><clipPath id="8a8764b642"><rect x="0" width="47" y="0" height="40"/></clipPath><clipPath id="6ce87d14a9"><path d="M 1.78125 123.054688 L 44.574219 123.054688 L 44.574219 158.765625 L 1.78125 158.765625 Z M 1.78125 123.054688 " clip-rule="nonzero"/></clipPath><clipPath id="b02814ce20"><path d="M 0.78125 0.0546875 L 43.574219 0.0546875 L 43.574219 35.765625 L 0.78125 35.765625 Z M 0.78125 0.0546875 " clip-rule="nonzero"/></clipPath><clipPath id="892b76951d"><rect x="0" width="44" y="0" height="36"/></clipPath><clipPath id="4e9436d07c"><path d="M 17.699219 138.027344 L 55.105469 138.027344 L 55.105469 166.453125 L 17.699219 166.453125 Z M 17.699219 138.027344 " clip-rule="nonzero"/></clipPath><clipPath id="2d58b8f610"><path d="M 0.699219 0.0273438 L 38.105469 0.0273438 L 38.105469 28.453125 L 0.699219 28.453125 Z M 0.699219 0.0273438 " clip-rule="nonzero"/></clipPath><clipPath id="deb59f30f5"><rect x="0" width="39" y="0" height="29"/></clipPath></defs><g clip-path="url(#6f41023a17)"><g transform="matrix(1, 0, 0, 1, 13, 115)"><g clip-path="url(#8a8764b642)"><g clip-path="url(#9816e95d03)"><path fill="#737373" d="M 0.460938 0.445312 L 46.367188 0.445312 L 46.367188 39.492188 L 0.460938 39.492188 Z M 0.460938 0.445312 " fill-opacity="1" fill-rule="nonzero"/></g></g></g></g><g clip-path="url(#6ce87d14a9)"><g transform="matrix(1, 0, 0, 1, 1, 123)"><g clip-path="url(#892b76951d)"><g clip-path="url(#b02814ce20)"><path fill="#545454" d="M 0.78125 0.0546875 L 43.605469 0.0546875 L 43.605469 35.765625 L 0.78125 35.765625 Z M 0.78125 0.0546875 " fill-opacity="1" fill-rule="nonzero"/></g></g></g></g><g clip-path="url(#4e9436d07c)"><g transform="matrix(1, 0, 0, 1, 17, 138)"><g clip-path="url(#deb59f30f5)"><g clip-path="url(#2d58b8f610)"><path fill="#f7931a" d="M 0.699219 0.0273438 L 38.117188 0.0273438 L 38.117188 28.453125 L 0.699219 28.453125 Z M 0.699219 0.0273438 " fill-opacity="1" fill-rule="nonzero"/></g></g></g></g><g fill="#ffffff" fill-opacity="1"><g transform="translate(68.860429, 167.17833)"><g><path d="M 12.3125 -11.515625 L 12.3125 -21.984375 C 13.40625 -23.796875 14.484375 -25.492188 15.546875 -27.078125 C 16.617188 -28.671875 17.757812 -30.253906 18.96875 -31.828125 C 20.175781 -33.410156 21.53125 -35.109375 23.03125 -36.921875 L 35.734375 -51.84375 L 48.71875 -51.84375 L 26.828125 -26.546875 L 25.953125 -26.796875 Z M 4.484375 0 L 4.484375 -51.84375 L 15.140625 -51.84375 L 15.140625 -37.65625 L 15 -24.46875 L 15.140625 -19.28125 L 15.140625 0 Z M 36.75 0 L 21.328125 -23.421875 L 27.984375 -31.390625 L 49.234375 0 Z M 36.75 0 "/></g></g></g><g fill="#ffffff" fill-opacity="1"><g transform="translate(122.123781, 167.17833)"><g><path d="M 1.390625 0 L 19.25 -51.84375 L 33.09375 -51.84375 L 51.296875 0 L 39.453125 0 L 31.171875 -25.046875 C 30.179688 -28.296875 29.164062 -31.804688 28.125 -35.578125 C 27.09375 -39.347656 26 -43.492188 24.84375 -48.015625 L 27.28125 -48.015625 C 26.144531 -43.492188 25.085938 -39.335938 24.109375 -35.546875 C 23.140625 -31.753906 22.164062 -28.253906 21.1875 -25.046875 L 13.078125 0 Z M 12.5625 -11.859375 L 12.5625 -20.25 L 40.125 -20.25 L 40.125 -11.859375 Z M 12.5625 -11.859375 "/></g></g></g><g fill="#ffffff" fill-opacity="1"><g transform="translate(177.370485, 167.17833)"><g><path d="M 4.484375 0 L 4.484375 -51.84375 L 24.78125 -51.84375 C 28.695312 -51.84375 32.046875 -51.101562 34.828125 -49.625 C 37.617188 -48.15625 39.75 -46.113281 41.21875 -43.5 C 42.6875 -40.894531 43.421875 -37.878906 43.421875 -34.453125 C 43.421875 -31.015625 42.671875 -27.992188 41.171875 -25.390625 C 39.679688 -22.796875 37.53125 -20.769531 34.71875 -19.3125 C 31.914062 -17.851562 28.53125 -17.125 24.5625 -17.125 L 11.234375 -17.125 L 11.234375 -25.78125 L 23.140625 -25.78125 C 25.222656 -25.78125 26.96875 -26.144531 28.375 -26.875 C 29.78125 -27.613281 30.832031 -28.628906 31.53125 -29.921875 C 32.226562 -31.222656 32.578125 -32.734375 32.578125 -34.453125 C 32.578125 -36.191406 32.226562 -37.695312 31.53125 -38.96875 C 30.832031 -40.25 29.78125 -41.25 28.375 -41.96875 C 26.96875 -42.6875 25.210938 -43.046875 23.109375 -43.046875 L 15.140625 -43.046875 L 15.140625 0 Z M 4.484375 0 "/></g></g></g><g fill="#ffffff" fill-opacity="1"><g transform="translate(219.950641, 167.17833)"><g><path d="M 1.390625 0 L 19.25 -51.84375 L 33.09375 -51.84375 L 51.296875 0 L 39.453125 0 L 31.171875 -25.046875 C 30.179688 -28.296875 29.164062 -31.804688 28.125 -35.578125 C 27.09375 -39.347656 26 -43.492188 24.84375 -48.015625 L 27.28125 -48.015625 C 26.144531 -43.492188 25.085938 -39.335938 24.109375 -35.546875 C 23.140625 -31.753906 22.164062 -28.253906 21.1875 -25.046875 L 13.078125 0 Z M 12.5625 -11.859375 L 12.5625 -20.25 L 40.125 -20.25 L 40.125 -11.859375 Z M 12.5625 -11.859375 "/></g></g></g><g fill="#ffffff" fill-opacity="1"><g transform="translate(275.197345, 167.17833)"><g/></g></g><g fill="#ffffff" fill-opacity="1"><g transform="translate(294.291261, 167.17833)"><g><path d="M 3.96875 0 L 3.96875 -7.6875 L 22.484375 -24.703125 C 24.035156 -26.210938 25.367188 -27.578125 26.484375 -28.796875 C 27.597656 -30.015625 28.453125 -31.234375 29.046875 -32.453125 C 29.648438 -33.671875 29.953125 -35 29.953125 -36.4375 C 29.953125 -38.007812 29.601562 -39.363281 28.90625 -40.5 C 28.21875 -41.632812 27.265625 -42.507812 26.046875 -43.125 C 24.828125 -43.738281 23.414062 -44.046875 21.8125 -44.046875 C 20.164062 -44.046875 18.726562 -43.703125 17.5 -43.015625 C 16.269531 -42.335938 15.316406 -41.359375 14.640625 -40.078125 C 13.972656 -38.804688 13.640625 -37.289062 13.640625 -35.53125 L 3.546875 -35.53125 C 3.546875 -38.988281 4.316406 -41.992188 5.859375 -44.546875 C 7.398438 -47.097656 9.546875 -49.070312 12.296875 -50.46875 C 15.046875 -51.875 18.242188 -52.578125 21.890625 -52.578125 C 25.523438 -52.578125 28.710938 -51.921875 31.453125 -50.609375 C 34.191406 -49.296875 36.328125 -47.472656 37.859375 -45.140625 C 39.390625 -42.816406 40.15625 -40.132812 40.15625 -37.09375 C 40.15625 -35.050781 39.757812 -33.078125 38.96875 -31.171875 C 38.1875 -29.273438 36.851562 -27.210938 34.96875 -24.984375 C 33.09375 -22.753906 30.507812 -20.144531 27.21875 -17.15625 L 18.65625 -9.015625 L 18.65625 -8.703125 L 40.75 -8.703125 L 40.75 0 Z M 3.96875 0 "/></g></g></g><g fill="#ffffff" fill-opacity="1"><g transform="translate(341.221785, 167.17833)"><g><path d="M 25.578125 -51.84375 L 25.578125 0 L 15.03125 0 L 15.03125 -42.390625 L 14.75 -42.390625 L 2.8125 -34.140625 L 2.8125 -43.78125 L 14.578125 -51.84375 Z M 25.578125 -51.84375 "/></g></g></g></svg>