<svg xmlns="http://www.w3.org/2000/svg" xmlns:xlink="http://www.w3.org/1999/xlink" width="500" zoomAndPan="magnify" viewBox="0 0 375 374.999991" height="500" preserveAspectRatio="xMidYMid meet" version="1.0"><defs><clipPath id="b66388ece9"><path d="M 32.09375 0.175781 L 157.960938 0.175781 L 157.960938 107.28125 L 32.09375 107.28125 Z M 32.09375 0.175781 " clip-rule="nonzero"/></clipPath><clipPath id="885c2dc291"><path d="M 0.09375 0.175781 L 125.960938 0.175781 L 125.960938 107.28125 L 0.09375 107.28125 Z M 0.09375 0.175781 " clip-rule="nonzero"/></clipPath><clipPath id="db934a5792"><rect x="0" width="126" y="0" height="108"/></clipPath><clipPath id="8f9d09e872"><path d="M 0.0585938 21.054688 L 117.449219 21.054688 L 117.449219 119.007812 L 0.0585938 119.007812 Z M 0.0585938 21.054688 " clip-rule="nonzero"/></clipPath><clipPath id="36d7380add"><path d="M 0.0585938 0.0546875 L 117.449219 0.0546875 L 117.449219 98.007812 L 0.0585938 98.007812 Z M 0.0585938 0.0546875 " clip-rule="nonzero"/></clipPath><clipPath id="1e7769c9d1"><rect x="0" width="118" y="0" height="99"/></clipPath><clipPath id="e54f28ee8c"><path d="M 43.71875 62.117188 L 146.335938 62.117188 L 146.335938 140.089844 L 43.71875 140.089844 Z M 43.71875 62.117188 " clip-rule="nonzero"/></clipPath><clipPath id="dac5df21a5"><path d="M 0.71875 0.117188 L 103.335938 0.117188 L 103.335938 78.089844 L 0.71875 78.089844 Z M 0.71875 0.117188 " clip-rule="nonzero"/></clipPath><clipPath id="07d7d63664"><rect x="0" width="104" y="0" height="79"/></clipPath><clipPath id="415d524321"><rect x="0" width="159" y="0" height="141"/></clipPath></defs><g transform="matrix(1, 0, 0, 1, 95, 95)"><g clip-path="url(#415d524321)"><g clip-path="url(#b66388ece9)"><g transform="matrix(1, 0, 0, 1, 32, 0)"><g clip-path="url(#db934a5792)"><g clip-path="url(#885c2dc291)"><path fill="#737373" d="M 0.09375 0.175781 L 126.027344 0.175781 L 126.027344 107.28125 L 0.09375 107.28125 Z M 0.09375 0.175781 " fill-opacity="1" fill-rule="nonzero"/></g></g></g></g><g clip-path="url(#8f9d09e872)"><g transform="matrix(1, 0, 0, 1, 0, 21)"><g clip-path="url(#1e7769c9d1)"><g clip-path="url(#36d7380add)"><path fill="#545454" d="M 0.0585938 0.0546875 L 117.527344 0.0546875 L 117.527344 98.007812 L 0.0585938 98.007812 Z M 0.0585938 0.0546875 " fill-opacity="1" fill-rule="nonzero"/></g></g></g></g><g clip-path="url(#e54f28ee8c)"><g transform="matrix(1, 0, 0, 1, 43, 62)"><g clip-path="url(#07d7d63664)"><g clip-path="url(#dac5df21a5)"><path fill="#f7931a" d="M 0.71875 0.117188 L 103.367188 0.117188 L 103.367188 78.089844 L 0.71875 78.089844 Z M 0.71875 0.117188 " fill-opacity="1" fill-rule="nonzero"/></g></g></g></g></g></g></svg>